<svg xmlns="http://www.w3.org/2000/svg" width="31.968" height="29.376">
    <path fill="#333" fill-rule="evenodd" d="M23.938 18.296a.45.45 0 0 1-.382.293l-2.753.244-.245 2.742a.448.448 0 0 1-.448.408.453.453 0 0 1-.318-.131l-3.694-3.685a9.092 9.092 0 0 1-4.103.975 9.092 9.092 0 0 1-4.103-.975l-3.695 3.685a.45.45 0 0 1-.765-.277l-.245-2.742-2.753-.244a.449.449 0 0 1-.278-.762l3.698-3.682a9.002 9.002 0 0 1-.98-4.089c0-5.01 4.093-9.086 9.122-9.086s9.121 4.076 9.121 9.086c0 1.47-.355 2.859-.98 4.089l3.697 3.682a.446.446 0 0 1 .104.469zm-22.467-.513l2.17.192a.45.45 0 0 1 .408.406l.193 2.162 2.843-2.836a9.162 9.162 0 0 1-2.769-2.758l-2.845 2.834zm18.748-7.727c0-4.517-3.689-8.192-8.224-8.192-4.534 0-8.223 3.675-8.223 8.192s3.689 8.192 8.223 8.192c4.535 0 8.224-3.675 8.224-8.192zm-.544 4.893a9.162 9.162 0 0 1-2.769 2.758l2.843 2.836.193-2.162a.449.449 0 0 1 .408-.406l2.169-.192-2.844-2.834zm-3.877-.426a.447.447 0 0 1-.651.472l-3.152-1.65-3.151 1.65a.451.451 0 0 1-.473-.034.445.445 0 0 1-.178-.437l.602-3.496-2.55-2.476a.444.444 0 0 1-.114-.458.448.448 0 0 1 .363-.304l3.523-.511 1.575-3.18a.45.45 0 0 1 .805 0l1.576 3.18 3.524.511a.447.447 0 0 1 .249.762l-2.55 2.476.602 3.495zm.671-5.979l-2.858-.413a.453.453 0 0 1-.338-.245l-1.277-2.579-1.278 2.579a.45.45 0 0 1-.338.245l-2.857.413 2.067 2.008a.446.446 0 0 1 .129.396l-.488 2.834 2.555-1.338a.455.455 0 0 1 .418 0l2.555 1.338-.488-2.834a.449.449 0 0 1 .13-.396l2.068-2.008z"/>
</svg>
